<svg xmlns="http://www.w3.org/2000/svg" width="25" height="25" viewBox="0 0 25 25">
  <defs>
    <style>
      .cls-1, .cls-2 {
        fill: gray;
      }

      .cls-2 {
        opacity: 0.4;
      }
    </style>
  </defs>
  <g id="Iconly_Bulk_Image-2" data-name="Iconly/Bulk/Image-2" transform="translate(-2 -2)">
    <g id="Image-2" transform="translate(2 2)">
      <path id="Fill-1" class="cls-1" d="M24.8,13.555v1.729c0,.287-.012.576-.038.863a6.759,6.759,0,0,1-7.051,6.529H6.891a6.874,6.874,0,0,1-4.91-1.83,5.741,5.741,0,0,1-1.19-1.54c.413-.5.877-1.053,1.328-1.6.764-.915,1.5-1.818,1.966-2.406.689-.852,2.505-3.1,5.023-2.043a9,9,0,0,1,1.378.777c1.015.677,1.44.877,2.154.489a5.576,5.576,0,0,0,1.841-2.143c.288-.465.576-.915.889-1.328a3.894,3.894,0,0,1,5.223-1.2,13.176,13.176,0,0,1,2.33,1.866c.15.15.3.289.438.427.188.188.814.814,1.44,1.416" transform="translate(0.198 2.323)"/>
      <path id="Fill-3" class="cls-2" d="M17.923,0H7.089C2.843,0,0,2.97,0,7.393V17.607A8.044,8.044,0,0,0,.989,21.63c.413-.5.877-1.053,1.328-1.605.764-.914,1.5-1.817,1.966-2.4.689-.852,2.505-3.1,5.023-2.043a9,9,0,0,1,1.378.777c1.015.677,1.44.877,2.154.488A5.557,5.557,0,0,0,14.679,14.7c.288-.464.576-.913.889-1.327a3.894,3.894,0,0,1,5.223-1.2,13.176,13.176,0,0,1,2.33,1.866c.15.15.3.29.438.427.188.187.814.813,1.44,1.416V7.393C25,2.97,22.157,0,17.923,0" transform="translate(0 0)"/>
      <path id="Fill-5" class="cls-1" d="M10.745,7.442A3.226,3.226,0,1,1,7.518,4.215a3.255,3.255,0,0,1,3.226,3.227" transform="translate(1.073 1.054)"/>
    </g>
  </g>
</svg>
