<svg id="Send" xmlns="http://www.w3.org/2000/svg" width="35.218" height="35" viewBox="0 0 35.218 35">
  <path id="Fill_1" data-name="Fill 1" d="M34.223,1.019a3.415,3.415,0,0,0-3.4-.881L2.479,8.328A3.371,3.371,0,0,0,.043,10.989a3.937,3.937,0,0,0,1.765,3.682l8.863,5.412a2.3,2.3,0,0,0,2.834-.336L23.654,9.6a1.3,1.3,0,0,1,1.867,0,1.329,1.329,0,0,1,0,1.867L15.355,21.614a2.308,2.308,0,0,0-.34,2.834l5.415,8.9a3.526,3.526,0,0,0,3.365,1.637,3.424,3.424,0,0,0,2.871-2.431l8.4-28.131a3.423,3.423,0,0,0-.846-3.4" transform="translate(0)" fill="#bbb"/>
  <path id="Combined_Shape" data-name="Combined Shape" d="M8.395,13.437a1.322,1.322,0,0,1,0-1.868L10.8,9.161a1.322,1.322,0,1,1,1.87,1.87l-2.407,2.406a1.321,1.321,0,0,1-1.868,0ZM7.014,6.762a1.322,1.322,0,0,1,0-1.868L9.419,2.487a1.322,1.322,0,0,1,1.87,1.87L8.882,6.762a1.321,1.321,0,0,1-1.868,0ZM.387,4.661a1.322,1.322,0,0,1,0-1.868L2.792.385a1.322,1.322,0,1,1,1.87,1.87L2.255,4.661a1.321,1.321,0,0,1-1.868,0Z" transform="translate(0.46 21.035)" fill="#bbb" opacity="0.4"/>
</svg>
